<svg width="579" height="330" xmlns="http://www.w3.org/2000/svg" xmlns:xlink="http://www.w3.org/1999/xlink" xml:space="preserve" overflow="hidden"><g transform="translate(-2341 -2826)"><g><path d="M99.4505 218.774 320.668 218.774" stroke="#EBEBEB" stroke-width="1.54209" stroke-linejoin="round" stroke-miterlimit="10" fill="none" transform="matrix(1 0 0 1.00024 2341.82 2826)"/><path d="M99.4505 161.803 320.668 161.803" stroke="#EBEBEB" stroke-width="1.54209" stroke-linejoin="round" stroke-miterlimit="10" fill="none" transform="matrix(1 0 0 1.00024 2341.82 2826)"/><path d="M99.4505 104.833 320.668 104.833" stroke="#EBEBEB" stroke-width="1.54209" stroke-linejoin="round" stroke-miterlimit="10" fill="none" transform="matrix(1 0 0 1.00024 2341.82 2826)"/><path d="M99.4505 47.8631 320.668 47.8631" stroke="#EBEBEB" stroke-width="1.54209" stroke-linejoin="round" stroke-miterlimit="10" fill="none" transform="matrix(1 0 0 1.00024 2341.82 2826)"/><path d="M117.112 251.216 117.112 15.9447" stroke="#EBEBEB" stroke-width="1.54209" stroke-linejoin="round" stroke-miterlimit="10" fill="none" transform="matrix(1 0 0 1.00024 2341.82 2826)"/><path d="M148.099 251.216 148.099 15.9447" stroke="#EBEBEB" stroke-width="1.54209" stroke-linejoin="round" stroke-miterlimit="10" fill="none" transform="matrix(1 0 0 1.00024 2341.82 2826)"/><path d="M179.057 251.216 179.057 15.9447" stroke="#EBEBEB" stroke-width="1.54209" stroke-linejoin="round" stroke-miterlimit="10" fill="none" transform="matrix(1 0 0 1.00024 2341.82 2826)"/><path d="M210.045 251.216 210.045 15.9447" stroke="#EBEBEB" stroke-width="1.54209" stroke-linejoin="round" stroke-miterlimit="10" fill="none" transform="matrix(1 0 0 1.00024 2341.82 2826)"/><path d="M241.032 251.216 241.032 15.9447" stroke="#EBEBEB" stroke-width="1.54209" stroke-linejoin="round" stroke-miterlimit="10" fill="none" transform="matrix(1 0 0 1.00024 2341.82 2826)"/><path d="M272.02 251.216 272.02 15.9447" stroke="#EBEBEB" stroke-width="1.54209" stroke-linejoin="round" stroke-miterlimit="10" fill="none" transform="matrix(1 0 0 1.00024 2341.82 2826)"/><path d="M303.007 251.216 303.007 15.9447" stroke="#EBEBEB" stroke-width="1.54209" stroke-linejoin="round" stroke-miterlimit="10" fill="none" transform="matrix(1 0 0 1.00024 2341.82 2826)"/><path d="M99.4505 247.259 320.668 247.259" stroke="#EBEBEB" stroke-width="3.11328" stroke-linejoin="round" stroke-miterlimit="10" fill="none" transform="matrix(1 0 0 1.00024 2341.82 2826)"/><path d="M99.4505 190.289 320.668 190.289" stroke="#EBEBEB" stroke-width="3.11328" stroke-linejoin="round" stroke-miterlimit="10" fill="none" transform="matrix(1 0 0 1.00024 2341.82 2826)"/><path d="M99.4505 133.318 320.668 133.318" stroke="#EBEBEB" stroke-width="3.11328" stroke-linejoin="round" stroke-miterlimit="10" fill="none" transform="matrix(1 0 0 1.00024 2341.82 2826)"/><path d="M99.4505 76.3482 320.668 76.3482" stroke="#EBEBEB" stroke-width="3.11328" stroke-linejoin="round" stroke-miterlimit="10" fill="none" transform="matrix(1 0 0 1.00024 2341.82 2826)"/><path d="M99.4505 19.378 320.668 19.378" stroke="#EBEBEB" stroke-width="3.11328" stroke-linejoin="round" stroke-miterlimit="10" fill="none" transform="matrix(1 0 0 1.00024 2341.82 2826)"/><path d="M101.604 251.216 101.604 15.9447" stroke="#EBEBEB" stroke-width="3.11328" stroke-linejoin="round" stroke-miterlimit="10" fill="none" transform="matrix(1 0 0 1.00024 2341.82 2826)"/><path d="M132.591 251.216 132.591 15.9447" stroke="#EBEBEB" stroke-width="3.11328" stroke-linejoin="round" stroke-miterlimit="10" fill="none" transform="matrix(1 0 0 1.00024 2341.82 2826)"/><path d="M163.578 251.216 163.578 15.9447" stroke="#EBEBEB" stroke-width="3.11328" stroke-linejoin="round" stroke-miterlimit="10" fill="none" transform="matrix(1 0 0 1.00024 2341.82 2826)"/><path d="M194.566 251.216 194.566 15.9447" stroke="#EBEBEB" stroke-width="3.11328" stroke-linejoin="round" stroke-miterlimit="10" fill="none" transform="matrix(1 0 0 1.00024 2341.82 2826)"/><path d="M225.553 251.216 225.553 15.9447" stroke="#EBEBEB" stroke-width="3.11328" stroke-linejoin="round" stroke-miterlimit="10" fill="none" transform="matrix(1 0 0 1.00024 2341.82 2826)"/><path d="M256.54 251.216 256.54 15.9447" stroke="#EBEBEB" stroke-width="3.11328" stroke-linejoin="round" stroke-miterlimit="10" fill="none" transform="matrix(1 0 0 1.00024 2341.82 2826)"/><path d="M287.528 251.216 287.528 15.9447" stroke="#EBEBEB" stroke-width="3.11328" stroke-linejoin="round" stroke-miterlimit="10" fill="none" transform="matrix(1 0 0 1.00024 2341.82 2826)"/><path d="M318.515 251.216 318.515 15.9447" stroke="#EBEBEB" stroke-width="3.11328" stroke-linejoin="round" stroke-miterlimit="10" fill="none" transform="matrix(1 0 0 1.00024 2341.82 2826)"/><path d="M101.604 119.469 117.112 117.519 132.591 117.781 148.099 118.683 163.578 118.247 179.057 119.178 194.566 119.178 210.045 119.556 225.553 119.323 241.032 119.818 256.54 119.73 272.02 119.352 287.528 120.487 303.007 119.207 318.515 119.498" stroke="#30123B" stroke-width="3.11328" stroke-linejoin="round" stroke-miterlimit="10" fill="none" transform="matrix(1 0 0 1.00024 2341.82 2826)"/><path d="M101.604 110.332 117.112 110.652 132.591 111.38 148.099 111.584 163.578 109.983 179.057 111.584 194.566 111.584 210.045 110.914 225.553 112.98 241.032 111.729 256.54 110.827 272.02 112.195 287.528 111.816 303.007 112.34 318.515 112.486" stroke="#3E9BFE" stroke-width="3.11328" stroke-linejoin="round" stroke-miterlimit="10" stroke-dasharray="8.29239 8.29239" fill="none" transform="matrix(1 0 0 1.00024 2341.82 2826)"/><path d="M101.604 102.651 117.112 104.135 132.591 103.553 148.099 103.029 163.578 103.96 179.057 104.775 194.566 103.64 210.045 104.048 225.553 103.408 241.032 104.542 256.54 105.357 272.02 103.611 287.528 104.135 303.007 104.426 318.515 104.921" stroke="#46F884" stroke-width="3.11328" stroke-linejoin="round" stroke-miterlimit="10" stroke-dasharray="16.5557 8.29239" fill="none" transform="matrix(1 0 0 1.00024 2341.82 2826)"/><path d="M101.604 112.864 117.112 108.354 132.591 101.575 148.099 96.1044 163.578 89.3832 179.057 83.9714 194.566 78.0067 210.045 70.7908 225.553 63.575 241.032 57.1157 256.54 51.0928 272.02 45.7682 287.528 37.9413 303.007 32.384 318.515 25.3427" stroke="#E1DD37" stroke-width="3.11328" stroke-linejoin="round" stroke-miterlimit="10" stroke-dasharray="16.5557 16.5557" fill="none" transform="matrix(1 0 0 1.00024 2341.82 2826)"/><path d="M101.604 106.812 117.112 108.005 132.591 111.991 148.099 117.316 163.578 123.018 179.057 131.893 194.566 139.108 210.045 150.805 225.553 162.153 241.032 174.198 256.54 186.884 272.02 201.956 287.528 214.671 303.007 229.103 318.515 244.553" stroke="#F05B12" stroke-width="3.11328" stroke-linejoin="round" stroke-miterlimit="10" stroke-dasharray="4.13165 12.424" fill="none" transform="matrix(1 0 0 1.00024 2341.82 2826)"/><path d="M101.604 113.271 117.112 111.875 132.591 112.835 148.099 113.358 163.578 113.213 179.057 114.522 194.566 113.708 210.045 115.424 225.553 115.482 241.032 115.395 256.54 117.665 272.02 116.588 287.528 116.821 303.007 116.85 318.515 117.606" stroke="#7A0403" stroke-width="3.11328" stroke-linejoin="round" stroke-miterlimit="10" stroke-dasharray="4.13165 12.424 16.5557 12.424" fill="none" transform="matrix(1 0 0 1.00024 2341.82 2826)"/><path d="M101.604 114.871 117.112 112.922 132.591 113.155 148.099 114.086 163.578 113.62 179.057 114.551 194.566 114.493 210.045 114.93 225.553 114.755 241.032 115.221 256.54 115.104 272.02 114.726 287.528 115.832 303.007 114.551 318.515 114.901 318.515 124.124 303.007 123.862 287.528 125.142 272.02 123.979 256.54 124.328 241.032 124.415 225.553 123.92 210.045 124.182 194.566 123.833 179.057 123.804 163.578 122.844 148.099 123.28 132.591 122.378 117.112 122.145 101.604 124.037Z" fill="#30123B" fill-opacity="0.25" transform="matrix(1 0 0 1.00024 2341.82 2826)"/><path d="M101.604 105.357 117.112 105.706 132.591 106.404 148.099 106.608 163.578 104.95 179.057 106.579 194.566 106.55 210.045 105.881 225.553 107.976 241.032 106.725 256.54 105.764 272.02 107.132 287.528 106.812 303.007 107.306 318.515 107.452 318.515 117.519 303.007 117.403 287.528 116.821 272.02 117.257 256.54 115.861 241.032 116.734 225.553 117.985 210.045 115.919 194.566 116.646 179.057 116.588 163.578 115.046 148.099 116.559 132.591 116.384 117.112 115.599 101.604 115.337Z" fill="#3E9BFE" fill-opacity="0.25" transform="matrix(1 0 0 1.00024 2341.82 2826)"/><path d="M101.604 98.1121 117.112 99.5669 132.591 99.0432 148.099 98.5194 163.578 99.4214 179.057 100.207 194.566 99.1013 210.045 99.5378 225.553 98.8686 241.032 100.003 256.54 100.876 272.02 99.1013 287.528 99.6542 303.007 99.916 318.515 100.382 318.515 109.43 303.007 108.936 287.528 108.616 272.02 108.092 256.54 109.867 241.032 109.081 225.553 107.976 210.045 108.558 194.566 108.208 179.057 109.314 163.578 108.528 148.099 107.568 132.591 108.063 117.112 108.674 101.604 107.19Z" fill="#46F884" fill-opacity="0.25" transform="matrix(1 0 0 1.00024 2341.82 2826)"/><path d="M101.604 108.208 117.112 103.728 132.591 96.8609 148.099 91.3909 163.578 84.6697 179.057 79.1705 194.566 73.1185 210.045 65.9027 225.553 58.745 241.032 52.2857 256.54 46.1755 272.02 40.88 287.528 33.0532 303.007 27.5249 318.515 20.4546 318.515 30.2309 303.007 37.243 287.528 42.8004 272.02 50.6563 256.54 56.01 241.032 61.9747 225.553 68.405 210.045 75.679 194.566 82.8657 179.057 88.7431 163.578 94.0968 148.099 100.818 132.591 106.288 117.112 112.98 101.604 117.519Z" fill="#E1DD37" fill-opacity="0.25" transform="matrix(1 0 0 1.00024 2341.82 2826)"/><path d="M101.604 102.098 117.112 103.408 132.591 107.51 148.099 112.951 163.578 118.799 179.057 127.848 194.566 135.21 210.045 147.11 225.553 158.661 241.032 170.852 256.54 183.8 272.02 199.105 287.528 212.023 303.007 226.659 318.515 242.429 318.515 246.677 303.007 231.547 287.528 217.319 272.02 204.778 256.54 189.998 241.032 177.544 225.553 165.673 210.045 154.5 194.566 143.007 179.057 135.908 163.578 127.237 148.099 121.68 132.591 116.501 117.112 112.602 101.604 111.525Z" fill="#F05B12" fill-opacity="0.25" transform="matrix(1 0 0 1.00024 2341.82 2826)"/><path d="M101.604 108.558 117.112 107.103 132.591 108.092 148.099 108.558 163.578 108.47 179.057 109.78 194.566 108.994 210.045 110.682 225.553 110.769 241.032 110.594 256.54 112.98 272.02 111.845 287.528 112.049 303.007 112.049 318.515 112.893 318.515 122.291 303.007 121.651 287.528 121.593 272.02 121.331 256.54 122.349 241.032 120.167 225.553 120.225 210.045 120.167 194.566 118.421 179.057 119.265 163.578 117.956 148.099 118.159 132.591 117.577 117.112 116.617 101.604 117.985Z" fill="#7A0403" fill-opacity="0.25" transform="matrix(1 0 0 1.00024 2341.82 2826)"/></g><path d="M99.4505 251.216 99.4505 15.9447" stroke="#000000" stroke-width="2.47317" stroke-linejoin="round" stroke-miterlimit="10" fill="none" transform="matrix(1 0 0 1.00024 2341.82 2826)"/><text font-family="Arial,Arial_MSFontService,sans-serif" font-weight="400" font-size="7" transform="matrix(2.90961 0 0 2.91031 2387.26 3081)">0</text><text font-family="Arial,Arial_MSFontService,sans-serif" font-weight="400" font-size="7" transform="matrix(2.90961 0 0 2.91031 2398.59 3081)">.</text><text font-family="Arial,Arial_MSFontService,sans-serif" font-weight="400" font-size="7" transform="matrix(2.90961 0 0 2.91031 2404.25 3081)">25</text><text font-family="Arial,Arial_MSFontService,sans-serif" font-weight="400" font-size="7" transform="matrix(2.90961 0 0 2.91031 2387.26 3024)">0</text><text font-family="Arial,Arial_MSFontService,sans-serif" font-weight="400" font-size="7" transform="matrix(2.90961 0 0 2.91031 2398.59 3024)">.</text><text font-family="Arial,Arial_MSFontService,sans-serif" font-weight="400" font-size="7" transform="matrix(2.90961 0 0 2.91031 2404.25 3024)">30</text><text font-family="Arial,Arial_MSFontService,sans-serif" font-weight="400" font-size="7" transform="matrix(2.90961 0 0 2.91031 2387.26 2967)">0</text><text font-family="Arial,Arial_MSFontService,sans-serif" font-weight="400" font-size="7" transform="matrix(2.90961 0 0 2.91031 2398.59 2967)">.</text><text font-family="Arial,Arial_MSFontService,sans-serif" font-weight="400" font-size="7" transform="matrix(2.90961 0 0 2.91031 2404.25 2967)">35</text><text font-family="Arial,Arial_MSFontService,sans-serif" font-weight="400" font-size="7" transform="matrix(2.90961 0 0 2.91031 2387.26 2910)">0</text><text font-family="Arial,Arial_MSFontService,sans-serif" font-weight="400" font-size="7" transform="matrix(2.90961 0 0 2.91031 2398.59 2910)">.</text><text font-family="Arial,Arial_MSFontService,sans-serif" font-weight="400" font-size="7" transform="matrix(2.90961 0 0 2.91031 2404.25 2910)">40</text><text font-family="Arial,Arial_MSFontService,sans-serif" font-weight="400" font-size="7" transform="matrix(2.90961 0 0 2.91031 2387.26 2853)">0</text><text font-family="Arial,Arial_MSFontService,sans-serif" font-weight="400" font-size="7" transform="matrix(2.90961 0 0 2.91031 2398.59 2853)">.</text><text font-family="Arial,Arial_MSFontService,sans-serif" font-weight="400" font-size="7" transform="matrix(2.90961 0 0 2.91031 2404.25 2853)">45</text><path d="M91.4782 247.259 99.4505 247.259" stroke="#000000" stroke-width="2.47317" stroke-linejoin="round" stroke-miterlimit="10" fill="none" transform="matrix(1 0 0 1.00024 2341.82 2826)"/><path d="M91.4782 190.289 99.4505 190.289" stroke="#000000" stroke-width="2.47317" stroke-linejoin="round" stroke-miterlimit="10" fill="none" transform="matrix(1 0 0 1.00024 2341.82 2826)"/><path d="M91.4782 133.318 99.4505 133.318" stroke="#000000" stroke-width="2.47317" stroke-linejoin="round" stroke-miterlimit="10" fill="none" transform="matrix(1 0 0 1.00024 2341.82 2826)"/><path d="M91.4782 76.3482 99.4505 76.3482" stroke="#000000" stroke-width="2.47317" stroke-linejoin="round" stroke-miterlimit="10" fill="none" transform="matrix(1 0 0 1.00024 2341.82 2826)"/><path d="M91.4782 19.378 99.4505 19.378" stroke="#000000" stroke-width="2.47317" stroke-linejoin="round" stroke-miterlimit="10" fill="none" transform="matrix(1 0 0 1.00024 2341.82 2826)"/><path d="M99.4505 251.216 320.668 251.216" stroke="#000000" stroke-width="2.47317" stroke-linejoin="round" stroke-miterlimit="10" fill="none" transform="matrix(1 0 0 1.00024 2341.82 2826)"/><path d="M101.604 259.188 101.604 251.216" stroke="#000000" stroke-width="2.47317" stroke-linejoin="round" stroke-miterlimit="10" fill="none" transform="matrix(1 0 0 1.00024 2341.82 2826)"/><path d="M132.591 259.188 132.591 251.216" stroke="#000000" stroke-width="2.47317" stroke-linejoin="round" stroke-miterlimit="10" fill="none" transform="matrix(1 0 0 1.00024 2341.82 2826)"/><path d="M163.578 259.188 163.578 251.216" stroke="#000000" stroke-width="2.47317" stroke-linejoin="round" stroke-miterlimit="10" fill="none" transform="matrix(1 0 0 1.00024 2341.82 2826)"/><path d="M194.566 259.188 194.566 251.216" stroke="#000000" stroke-width="2.47317" stroke-linejoin="round" stroke-miterlimit="10" fill="none" transform="matrix(1 0 0 1.00024 2341.82 2826)"/><path d="M225.553 259.188 225.553 251.216" stroke="#000000" stroke-width="2.47317" stroke-linejoin="round" stroke-miterlimit="10" fill="none" transform="matrix(1 0 0 1.00024 2341.82 2826)"/><path d="M256.54 259.188 256.54 251.216" stroke="#000000" stroke-width="2.47317" stroke-linejoin="round" stroke-miterlimit="10" fill="none" transform="matrix(1 0 0 1.00024 2341.82 2826)"/><path d="M287.528 259.188 287.528 251.216" stroke="#000000" stroke-width="2.47317" stroke-linejoin="round" stroke-miterlimit="10" fill="none" transform="matrix(1 0 0 1.00024 2341.82 2826)"/><path d="M318.515 259.188 318.515 251.216" stroke="#000000" stroke-width="2.47317" stroke-linejoin="round" stroke-miterlimit="10" fill="none" transform="matrix(1 0 0 1.00024 2341.82 2826)"/><text font-family="Arial,Arial_MSFontService,sans-serif" font-weight="400" font-size="7" transform="matrix(2.90961 0 0 2.91031 2437.76 3106)">0</text><text font-family="Arial,Arial_MSFontService,sans-serif" font-weight="400" font-size="7" transform="matrix(2.90961 0 0 2.91031 2468.75 3106)">2</text><text font-family="Arial,Arial_MSFontService,sans-serif" font-weight="400" font-size="7" transform="matrix(2.90961 0 0 2.91031 2499.74 3106)">4</text><text font-family="Arial,Arial_MSFontService,sans-serif" font-weight="400" font-size="7" transform="matrix(2.90961 0 0 2.91031 2530.73 3106)">6</text><text font-family="Arial,Arial_MSFontService,sans-serif" font-weight="400" font-size="7" transform="matrix(2.90961 0 0 2.91031 2561.71 3106)">8</text><text font-family="Arial,Arial_MSFontService,sans-serif" font-weight="400" font-size="7" transform="matrix(2.90961 0 0 2.91031 2587.04 3106)">10</text><text font-family="Arial,Arial_MSFontService,sans-serif" font-weight="400" font-size="7" transform="matrix(2.90961 0 0 2.91031 2618.02 3106)">12</text><text font-family="Arial,Arial_MSFontService,sans-serif" font-weight="400" font-size="7" transform="matrix(2.90961 0 0 2.91031 2649.01 3106)">14</text><text font-family="Arial,Arial_MSFontService,sans-serif" font-weight="700" font-size="8" transform="matrix(2.90961 0 0 2.91031 2530.52 3135)">Day</text><text font-family="Arial,Arial_MSFontService,sans-serif" font-weight="700" font-size="8" transform="matrix(1.78162e-16 -2.91031 2.90961 1.78205e-16 2374.44 3033)">DG Similarity</text><path d="M352.558 40.5891 561.409 40.5891 561.409 226.571 352.558 226.571Z" fill="#FFFFFF" transform="matrix(1 0 0 1.00024 2341.82 2826)"/><path d="M357.591 90.4889 397.802 90.4889" stroke="#30123B" stroke-width="3.11328" stroke-linejoin="round" stroke-miterlimit="10" fill="none" transform="matrix(1 0 0 1.00024 2341.82 2826)"/><path d="M354.623 80.1598 400.77 80.1598 400.77 100.789 354.623 100.789Z" fill="#30123B" fill-opacity="0.25" transform="matrix(1 0 0 1.00024 2341.82 2826)"/><path d="M357.591 115.221 397.802 115.221" stroke="#3E9BFE" stroke-width="3.11328" stroke-linejoin="round" stroke-miterlimit="10" stroke-dasharray="8.29239 8.29239" fill="none" transform="matrix(1 0 0 1.00024 2341.82 2826)"/><path d="M354.623 104.921 400.77 104.921 400.77 125.55 354.623 125.55Z" fill="#3E9BFE" fill-opacity="0.25" transform="matrix(1 0 0 1.00024 2341.82 2826)"/><path d="M357.591 139.981 397.802 139.981" stroke="#46F884" stroke-width="3.11328" stroke-linejoin="round" stroke-miterlimit="10" stroke-dasharray="16.5557 8.29239" fill="none" transform="matrix(1 0 0 1.00024 2341.82 2826)"/><path d="M354.623 129.652 400.77 129.652 400.77 150.281 354.623 150.281Z" fill="#46F884" fill-opacity="0.25" transform="matrix(1 0 0 1.00024 2341.82 2826)"/><path d="M357.591 164.713 397.802 164.713" stroke="#E1DD37" stroke-width="3.11328" stroke-linejoin="round" stroke-miterlimit="10" stroke-dasharray="16.5557 16.5557" fill="none" transform="matrix(1 0 0 1.00024 2341.82 2826)"/><path d="M354.623 154.413 400.77 154.413 400.77 175.042 354.623 175.042Z" fill="#E1DD37" fill-opacity="0.25" transform="matrix(1 0 0 1.00024 2341.82 2826)"/><path d="M357.591 189.445 397.802 189.445" stroke="#F05B12" stroke-width="3.11328" stroke-linejoin="round" stroke-miterlimit="10" stroke-dasharray="4.13165 12.424" fill="none" transform="matrix(1 0 0 1.00024 2341.82 2826)"/><path d="M354.623 179.145 400.77 179.145 400.77 199.774 354.623 199.774Z" fill="#F05B12" fill-opacity="0.25" transform="matrix(1 0 0 1.00024 2341.82 2826)"/><path d="M357.591 214.206 397.802 214.206" stroke="#7A0403" stroke-width="3.11328" stroke-linejoin="round" stroke-miterlimit="10" stroke-dasharray="4.13165 12.424 16.5557 12.424" fill="none" transform="matrix(1 0 0 1.00024 2341.82 2826)"/><path d="M354.623 203.876 400.77 203.876 400.77 224.506 354.623 224.506Z" fill="#7A0403" fill-opacity="0.25" transform="matrix(1 0 0 1.00024 2341.82 2826)"/><text font-family="Arial,Arial_MSFontService,sans-serif" font-weight="400" font-size="7" transform="matrix(2.90961 0 0 2.91031 2760.6 2924)">Backprop</text><text font-family="Arial,Arial_MSFontService,sans-serif" font-weight="400" font-size="7" transform="matrix(2.90961 0 0 2.91031 2760.6 2949)">DFA</text><text font-family="Arial,Arial_MSFontService,sans-serif" font-weight="400" font-size="7" transform="matrix(2.90961 0 0 2.91031 2760.6 2973)">Fixed</text><text font-family="Arial,Arial_MSFontService,sans-serif" font-weight="400" font-size="7" transform="matrix(2.90961 0 0 2.91031 2760.6 2998)">Hebb</text><text font-family="Arial,Arial_MSFontService,sans-serif" font-weight="400" font-size="7" transform="matrix(2.90961 0 0 2.91031 2760.6 3023)">Hebb</text><text font-family="Arial,Arial_MSFontService,sans-serif" font-weight="400" font-size="7" transform="matrix(2.90961 0 0 2.91031 2809.29 3023)">/</text><text font-family="Arial,Arial_MSFontService,sans-serif" font-weight="400" font-size="7" transform="matrix(2.90961 0 0 2.91031 2814.95 3023)">anti</text><text font-family="Arial,Arial_MSFontService,sans-serif" font-weight="400" font-size="7" transform="matrix(2.90961 0 0 2.91031 2847.79 3023)">-</text><text font-family="Arial,Arial_MSFontService,sans-serif" font-weight="400" font-size="7" transform="matrix(2.90961 0 0 2.91031 2854.57 3023)">Hebb</text><text font-family="Arial,Arial_MSFontService,sans-serif" font-weight="400" font-size="7" transform="matrix(2.90961 0 0 2.91031 2760.6 3048)">Three</text><text font-family="Arial,Arial_MSFontService,sans-serif" font-weight="400" font-size="7" transform="matrix(2.90961 0 0 2.91031 2813.81 3048)">-</text><text font-family="Arial,Arial_MSFontService,sans-serif" font-weight="400" font-size="7" transform="matrix(2.90961 0 0 2.91031 2820.59 3048)">factor</text></g></svg>