<svg width="217" height="189" xmlns="http://www.w3.org/2000/svg" xmlns:xlink="http://www.w3.org/1999/xlink" xml:space="preserve" overflow="hidden"><defs><clipPath id="clip0"><path d="M166.842 68.4185 187.575 72.918 183.077 93.652 162.346 89.1524Z" fill-rule="evenodd" clip-rule="evenodd"/></clipPath><clipPath id="clip1"><path d="M166.842 68.4185 187.575 72.918 183.077 93.652 162.346 89.1524Z" fill-rule="evenodd" clip-rule="evenodd"/></clipPath><clipPath id="clip2"><path d="M166.842 68.4185 187.575 72.918 183.077 93.652 162.346 89.1524Z" fill-rule="evenodd" clip-rule="evenodd"/></clipPath></defs><g><path d="M454.322 496.33 464.088 496.33 464.088 498.74 454.322 498.74ZM462.883 493.921 470.11 497.535 462.883 501.149Z" fill="#FF0000" transform="matrix(1 0 0 1.00016 -435.869 -349.498)"/><path d="M454.322 504.739 464.088 504.739 464.088 507.149 454.322 507.149ZM462.883 502.33 470.11 505.944 462.883 509.558Z" fill="#0070C0" transform="matrix(1 0 0 1.00016 -435.869 -349.498)"/><path d="M454.322 524.827 464.088 524.827 464.088 527.238 454.322 527.238ZM462.883 522.419 470.11 526.032 462.883 529.646Z" fill="#4EA72E" transform="matrix(1 0 0 1.00016 -435.869 -349.498)"/><text font-family="Arial,Arial_MSFontService,sans-serif" font-weight="400" font-size="46" transform="matrix(0.233584 0 0 0.233622 42.4236 156)">w</text><text font-family="Arial,Arial_MSFontService,sans-serif" font-weight="400" font-size="46" transform="matrix(0.233584 0 0 0.233622 50.1856 156)">ts</text><text font-family="Arial,Arial_MSFontService,sans-serif" font-weight="400" font-size="46" transform="matrix(0.233584 0 0 0.233622 58.4826 156)">. </text><text font-family="Arial,Arial_MSFontService,sans-serif" font-weight="400" font-size="46" transform="matrix(0.233584 0 0 0.233622 64.4531 156)">trained with Hebbian learning</text><text font-family="Arial,Arial_MSFontService,sans-serif" font-weight="400" font-size="46" transform="matrix(0.233584 0 0 0.233622 42.4236 180)">w</text><text font-family="Arial,Arial_MSFontService,sans-serif" font-weight="400" font-size="46" transform="matrix(0.233584 0 0 0.233622 50.1856 180)">ts</text><text font-family="Arial,Arial_MSFontService,sans-serif" font-weight="400" font-size="46" transform="matrix(0.233584 0 0 0.233622 58.4826 180)">. </text><text font-family="Arial,Arial_MSFontService,sans-serif" font-weight="400" font-size="46" transform="matrix(0.233584 0 0 0.233622 64.4531 180)">trained with TD learning</text><path d="M463.782 385.064 478.498 385.064 478.498 435.518 463.782 435.518Z" stroke="#172C51" stroke-width="1.60589" stroke-miterlimit="8" fill="none" transform="matrix(1 0 0 1.00016 -435.869 -349.498)"/><path d="M471.14 388.101C474.56 388.101 477.33 390.871 477.33 394.291 477.33 397.71 474.56 400.481 471.14 400.481 467.72 400.481 464.95 397.71 464.95 394.291 464.95 390.871 467.72 388.101 471.14 388.101Z" stroke="#172C51" stroke-width="1.60589" stroke-miterlimit="8" fill="none" fill-rule="evenodd" transform="matrix(1 0 0 1.00016 -435.869 -349.498)"/><path d="M471.14 403.517C474.56 403.517 477.33 406.288 477.33 409.707 477.33 413.127 474.56 415.897 471.14 415.897 467.72 415.897 464.95 413.127 464.95 409.707 464.95 406.288 467.72 403.517 471.14 403.517Z" stroke="#172C51" stroke-width="1.60589" stroke-miterlimit="8" fill="none" fill-rule="evenodd" transform="matrix(1 0 0 1.00016 -435.869 -349.498)"/><text font-family="Arial,Arial_MSFontService,sans-serif" font-weight="700" font-size="46" transform="matrix(1.43029e-17 0.233622 -0.233584 1.43052e-17 34.115 69)">…</text><path d="M553.011 373.618 586.647 373.618 586.647 388.334 553.011 388.334Z" stroke="#172C51" stroke-width="1.60589" stroke-miterlimit="8" fill="none" transform="matrix(1 0 0 1.00016 -435.869 -349.498)"/><path d="M555.814 380.976C555.814 377.557 558.585 374.786 562.004 374.786 565.424 374.786 568.194 377.557 568.194 380.976 568.194 384.396 565.424 387.166 562.004 387.166 558.585 387.166 555.814 384.396 555.814 380.976Z" stroke="#172C51" stroke-width="1.60589" stroke-miterlimit="8" fill="none" fill-rule="evenodd" transform="matrix(1 0 0 1.00016 -435.869 -349.498)"/><path d="M571.231 380.976C571.231 377.557 574.001 374.786 577.421 374.786 580.841 374.786 583.611 377.557 583.611 380.976 583.611 384.396 580.841 387.166 577.421 387.166 574.001 387.166 571.231 384.396 571.231 380.976Z" stroke="#172C51" stroke-width="1.60589" stroke-miterlimit="8" fill="none" fill-rule="evenodd" transform="matrix(1 0 0 1.00016 -435.869 -349.498)"/><path d="M565.391 444.745C565.391 441.325 568.162 438.555 571.581 438.555 575.001 438.555 577.771 441.325 577.771 444.745 577.771 448.165 575.001 450.935 571.581 450.935 568.162 450.935 565.391 448.165 565.391 444.745Z" stroke="#172C51" stroke-width="1.60589" stroke-miterlimit="8" fill="none" fill-rule="evenodd" transform="matrix(1 0 0 1.00016 -435.869 -349.498)"/><text font-family="Arial,Arial_MSFontService,sans-serif" font-weight="700" font-size="46" transform="matrix(0.233584 0 0 0.233622 28.1563 32)">EC</text><text font-family="Arial,Arial_MSFontService,sans-serif" font-weight="700" font-size="46" transform="matrix(0.233584 0 0 0.233622 65.8965 14)">DG</text><text font-family="Arial,Arial_MSFontService,sans-serif" font-weight="700" font-size="46" transform="matrix(0.233584 0 0 0.233622 107.984 20)">Actor</text><text font-family="Arial,Arial_MSFontService,sans-serif" font-weight="700" font-size="46" transform="matrix(0.233584 0 0 0.233622 138.896 20)">cells</text><text font-family="Arial,Arial_MSFontService,sans-serif" font-weight="700" font-size="46" transform="matrix(0.233584 0 0 0.233622 151.669 98)">Foot shock</text><path d="M502.323 366.844 517.039 366.844 517.039 460.745 502.323 460.745Z" stroke="#172C51" stroke-width="1.60589" stroke-miterlimit="8" fill="none" transform="matrix(1 0 0 1.00016 -435.869 -349.498)"/><path d="M509.681 369.881C513.101 369.881 515.871 372.651 515.871 376.071 515.871 379.491 513.101 382.261 509.681 382.261 506.262 382.261 503.491 379.491 503.491 376.071 503.491 372.651 506.262 369.881 509.681 369.881Z" stroke="#172C51" stroke-width="1.60589" stroke-miterlimit="8" fill="none" fill-rule="evenodd" transform="matrix(1 0 0 1.00016 -435.869 -349.498)"/><path d="M509.681 385.298C513.101 385.298 515.871 388.068 515.871 391.488 515.871 394.907 513.101 397.678 509.681 397.678 506.262 397.678 503.491 394.907 503.491 391.488 503.491 388.068 506.262 385.298 509.681 385.298Z" stroke="#172C51" stroke-width="1.60589" stroke-miterlimit="8" fill="none" fill-rule="evenodd" transform="matrix(1 0 0 1.00016 -435.869 -349.498)"/><path d="M509.681 400.714C513.101 400.714 515.871 403.484 515.871 406.904 515.871 410.324 513.101 413.094 509.681 413.094 506.262 413.094 503.491 410.324 503.491 406.904 503.491 403.484 506.262 400.714 509.681 400.714Z" stroke="#172C51" stroke-width="1.60589" stroke-miterlimit="8" fill="none" fill-rule="evenodd" transform="matrix(1 0 0 1.00016 -435.869 -349.498)"/><text font-family="Arial,Arial_MSFontService,sans-serif" font-weight="700" font-size="46" transform="matrix(1.43029e-17 0.233622 -0.233584 1.43052e-17 72.6822 96)">…</text><path d="M509.681 415.43C513.101 415.43 515.871 418.2 515.871 421.62 515.871 425.04 513.101 427.81 509.681 427.81 506.262 427.81 503.491 425.04 503.491 421.62 503.491 418.2 506.262 415.43 509.681 415.43Z" stroke="#172C51" stroke-width="1.60589" stroke-miterlimit="8" fill="none" fill-rule="evenodd" transform="matrix(1 0 0 1.00016 -435.869 -349.498)"/><path d="M509.681 429.912C513.101 429.912 515.871 432.683 515.871 436.102 515.871 439.522 513.101 442.292 509.681 442.292 506.262 442.292 503.491 439.522 503.491 436.102 503.491 432.683 506.262 429.912 509.681 429.912Z" stroke="#172C51" stroke-width="1.60589" stroke-miterlimit="8" fill="none" fill-rule="evenodd" transform="matrix(1 0 0 1.00016 -435.869 -349.498)"/><path d="M0.971732-0.711592 22.3752 28.5165 20.4317 29.9397-0.971732 0.711592ZM23.607 26.1215 24.9613 34.0868 17.7766 30.391Z" fill="#FF0000" transform="matrix(1 0 0 -1.00016 42.5124 60.7253)"/><path d="M515.827 374.868 516.628 374.917 517.516 375.074 519.128 375.632 520.636 376.498 521.977 377.615 523.112 378.937 523.998 380.427 524.565 382.018 524.727 382.901 524.783 383.8 524.589 385.468 523.995 387.232 522.185 389.131 520.44 387.47 522.066 385.762 521.797 386.209 522.267 384.819 522.211 385.064 522.377 383.63 522.372 383.842 522.325 383.123 522.344 383.263 522.213 382.548 522.262 382.738 521.767 381.345 521.865 381.556 521.094 380.255 521.216 380.425 520.216 379.262 520.359 379.402 519.177 378.419 519.347 378.535 518.025 377.776 518.233 377.87 516.82 377.381 517.002 377.43 516.275 377.302 516.413 377.318 515.682 377.274ZM524.236 390.742 516.189 391.464 520.438 384.592Z" fill="#4472C4" transform="matrix(1 0 0 1.00016 -435.869 -349.498)"/><g clip-path="url(#clip0)"><g clip-path="url(#clip1)"><g clip-path="url(#clip2)"><path d="M7.51321 19.667 9.94397 11.4908 6.18735 11.4908 8.04799 1.59987 13.6078 1.59987 11.2698 8.83908 15.0264 8.83908 7.51321 19.667Z" transform="matrix(0.977254 0.212071 -0.212037 0.977406 166.842 68.4185)"/></g></g></g><text font-family="Cambria Math,Cambria Math_MSFontService,sans-serif" font-style="oblique" font-weight="700" font-size="55" transform="matrix(0.233584 0 0 0.233622 136.852 73)">δ</text><text font-family="Cambria Math,Cambria Math_MSFontService,sans-serif" font-style="oblique" font-weight="700" font-size="55" transform="matrix(0.233584 0 0 0.233622 143.86 73)">(</text><text font-family="Cambria Math,Cambria Math_MSFontService,sans-serif" font-style="oblique" font-weight="700" font-size="55" transform="matrix(0.233584 0 0 0.233622 149.466 73)">t</text><text font-family="Cambria Math,Cambria Math_MSFontService,sans-serif" font-style="oblique" font-weight="700" font-size="55" transform="matrix(0.233584 0 0 0.233622 154.138 73)">)</text><path d="M0.0127898-0.535147 2.33943-0.479542 4.62656-0.320054 7.4372 0.231777 7.23095 1.28232 4.45296 0.736904 4.51886 0.745636 2.27716 0.589318 2.30161 0.59046-0.0127898 0.535147ZM7.34263-2.62847 12.4081 2.46262 5.29592 3.46034Z" transform="matrix(-0.984803 0.173675 0.173647 0.98496 137.962 67.6872)"/><path d="M0.119654-0.521753 0.478813-0.439386 0.875444-0.172159 1.2035 0.190093 1.49223 0.632089 1.75656 1.15119 2.00487 1.75105 2.44773 3.15178 2.75398 5.0746 1.69672 5.24301 1.39671 3.35946 1.41494 3.43661 0.991041 2.09581 1.00684 2.13918 0.775405 1.58009 0.792984 1.61824 0.551292 1.14359 0.580161 1.19345 0.330263 0.810912 0.38163 0.877474 0.12558 0.594727 0.223258 0.679348-0.0368958 0.504071 0.142552 0.581885-0.119654 0.521753ZM5.30354 3.74933 2.80049 10.4808-1.08286 4.43948Z" transform="matrix(-1.83697e-16 -1.00016 -1 1.83726e-16 169.202 73.4717)"/><path d="M0.0355347-1.2039 5.01623-1.05688 9.99092-0.625497 14.8856 0.0701688 19.6627 1.01137 24.2846 2.17961 28.7138 3.55674 32.9128 5.12498 36.8447 6.8671 40.4617 8.76119 42.1587 9.77044 43.7567 10.808 45.26 11.8777 46.6643 12.978 47.9647 14.1077 49.1562 15.2658 50.2337 16.4514 51.266 17.7574 51.9151 19.3125 49.6923 20.2406 49.1069 18.8383 49.2732 19.121 48.3695 17.9775 48.4232 18.0408 47.3987 16.9136 47.4506 16.9672 46.31 15.8586 46.3595 15.9041 45.1075 14.8165 45.1547 14.8553 43.7962 13.791 43.8408 13.8243 42.3811 12.7856 42.4234 12.8144 40.8668 11.8037 40.907 11.8287 39.2583 10.8482 39.3153 10.88 35.762 9.01933 35.8328 9.0535 31.9698 7.34189 32.0363 7.36901 27.9026 5.82515 27.9664 5.84695 23.6004 4.48947 23.6628 4.50706 19.1034 3.35458 19.1657 3.36859 14.4515 2.43979 14.5149 2.45051 9.68458 1.76401 9.75 1.77149 4.84232 1.34592 4.91083 1.3499-0.0355347 1.2039ZM53.801 17.4265 52.83 25.4474 46.9958 19.8582Z" fill="#70AD47" transform="matrix(1 0 0 -1.00016 81.0538 64.232)"/><path d="M516.955 412.475 522.094 412.618 527.221 413.036 532.269 413.713 537.193 414.629 541.96 415.764 546.527 417.105 550.855 418.63 554.901 420.319 556.819 421.23 558.648 422.171 560.388 423.148 562.037 424.157 563.586 425.196 565.034 426.266 566.375 427.366 567.606 428.494 568.718 429.648 569.794 430.933 570.397 432.365 568.178 433.299 567.643 432.036 567.83 432.339 566.898 431.227 566.954 431.288 565.896 430.193 565.95 430.244 564.772 429.165 564.824 429.209 563.53 428.149 563.579 428.186 562.177 427.151 562.221 427.182 560.715 426.17 560.757 426.198 559.15 425.213 559.19 425.236 557.489 424.283 557.526 424.302 555.735 423.379 555.77 423.398 553.894 422.508 553.946 422.531 549.958 420.866 550.024 420.889 545.756 419.387 545.817 419.406 541.311 418.086 541.372 418.1 536.665 416.979 536.723 416.99 531.858 416.086 531.919 416.096 526.934 415.428 526.995 415.435 521.931 415.021 521.994 415.024 516.89 414.881ZM572.226 430.412 571.45 438.452 565.482 433.005Z" fill="#70AD47" transform="matrix(1 0 0 1.00016 -435.869 -349.498)"/><text font-family="Arial,Arial_MSFontService,sans-serif" font-weight="700" font-size="46" transform="matrix(0.233584 0 0 0.233622 109.962 114)">Critic cell</text><path d="M480.367 449.884C480.367 446.464 483.085 443.694 486.44 443.694 489.794 443.694 492.513 446.464 492.513 449.884 492.513 453.303 489.794 456.074 486.44 456.074 483.085 456.074 480.367 453.303 480.367 449.884Z" stroke="#172C51" stroke-width="1.60589" stroke-miterlimit="8" fill="none" fill-rule="evenodd" transform="matrix(1 0 0 1.00016 -435.869 -349.498)"/><text font-family="Arial,Arial_MSFontService,sans-serif" font-weight="700" font-size="46" transform="matrix(0.233584 0 0 0.233622 7.5985 119)">Newborn </text><text font-family="Arial,Arial_MSFontService,sans-serif" font-weight="700" font-size="46" transform="matrix(0.233584 0 0 0.233622 7.5985 132)">neurons</text><path d="M515.846 374.87 517.088 374.966 518.399 375.258 519.669 375.725 520.893 376.351 522.064 377.115 523.173 378.007 524.215 379.017 525.184 380.126 526.072 381.331 526.871 382.616 527.574 383.973 528.17 385.391 528.653 386.858 529.01 388.367 529.232 389.906 529.307 391.464 529.235 393.018 529.02 394.552 528.676 396.059 528.212 397.526 527.637 398.941 526.96 400.296 526.189 401.581 525.332 402.786 524.322 403.984 522.337 405.337 520.982 403.347 522.83 402.088 522.587 402.307 523.458 401.272 523.397 401.35 524.199 400.224 524.147 400.301 524.871 399.098 524.827 399.18 525.462 397.906 525.423 397.991 525.962 396.664 525.93 396.753 526.364 395.379 526.338 395.475 526.661 394.066 526.642 394.169 526.84 392.74 526.831 392.849 526.899 391.408 526.899 391.523 526.829 390.081 526.84 390.196 526.633 388.766 526.654 388.871 526.32 387.463 526.348 387.561 525.897 386.188 525.932 386.279 525.371 384.952 525.413 385.038 524.755 383.765 524.801 383.847 524.052 382.644 524.105 382.721 523.274 381.598 523.337 381.672 522.433 380.638 522.503 380.712 521.538 379.778 521.62 379.85 520.599 379.031 520.695 379.098 519.63 378.402 519.742 378.468 518.639 377.905 518.77 377.963 517.642 377.547 517.794 377.592 516.647 377.335 516.82 377.36 515.664 377.272ZM524.264 407.121 516.189 406.857 521.244 400.555Z" fill="#4472C4" transform="matrix(1 0 0 1.00016 -435.869 -349.498)"/><path d="M515.843 374.87 517.689 375.006 519.597 375.422 521.456 376.083 523.255 376.973 524.983 378.066 526.628 379.348 528.177 380.799 529.62 382.404 530.947 384.141 532.141 386.001 533.189 387.965 534.082 390.016 534.801 392.142 535.334 394.323 535.665 396.547 535.78 398.792 535.67 401.039 535.345 403.258 534.824 405.44 534.121 407.563 533.252 409.614 532.227 411.576 531.061 413.435 529.765 415.173 528.354 416.778 526.84 418.228 525.175 419.557 522.491 420.875 521.428 418.714 523.995 417.453 523.776 417.593 525.294 416.381 525.212 416.453 526.651 415.073 526.581 415.147 527.924 413.62 527.864 413.697 529.099 412.034 529.045 412.113 530.16 410.336 530.113 410.417 531.094 408.539 531.052 408.628 531.886 406.666 531.851 406.759 532.521 404.732 532.493 404.83 532.991 402.751 532.97 402.859 533.276 400.747 533.266 400.861 533.371 398.733 533.371 398.855 533.264 396.727 533.276 396.844 532.96 394.732 532.981 394.842 532.475 392.763 532.503 392.863 531.816 390.836 531.853 390.929 531.001 388.97 531.043 389.056 530.038 387.178 530.087 387.262 528.945 385.484 529.001 385.564 527.735 383.901 527.798 383.978 526.422 382.45 526.495 382.523 525.021 381.144 525.105 381.215 523.549 380.002 523.645 380.07 522.019 379.042 522.131 379.103 520.452 378.274 520.58 378.33 518.861 377.715 519.008 377.758 517.261 377.379 517.427 377.402 515.666 377.272ZM524.147 422.912 516.189 421.515 522.08 415.988Z" fill="#4472C4" transform="matrix(1 0 0 1.00016 -435.869 -349.498)"/><path d="M515.806 374.868 516.869 374.912 518.002 375.057 520.165 375.597 522.293 376.466 524.348 377.631 526.317 379.063 528.193 380.74 529.956 382.635 531.599 384.728 533.103 386.996 534.46 389.42 535.651 391.976 536.663 394.646 537.478 397.407 538.081 400.24 538.454 403.122 538.583 406.031 538.459 408.939 538.092 411.819 537.501 414.65 536.702 417.411 535.712 420.078 534.544 422.636 533.215 425.058 531.741 427.326 530.132 429.419 528.401 431.316 526.565 432.991 524.57 434.472 522.421 435.371 521.491 433.15 523.505 432.306 523.253 432.451 525.082 431.094 524.986 431.171 526.738 429.574 526.658 429.651 528.317 427.833 528.251 427.91 529.802 425.897 529.746 425.974 531.171 423.783 531.127 423.86 532.411 421.515 532.372 421.594 533.502 419.118 533.47 419.2 534.427 416.614 534.399 416.698 535.175 414.024 535.151 414.113 535.724 411.375 535.707 411.468 536.062 408.684 536.053 408.785 536.174 405.979 536.174 406.084 536.051 403.279 536.06 403.382 535.698 400.6 535.714 400.696 535.13 397.956 535.154 398.044 534.364 395.372 534.395 395.456 533.414 392.87 533.449 392.955 532.295 390.479 532.337 390.558 531.024 388.213 531.073 388.29 529.618 386.101 529.674 386.178 528.093 384.162 528.158 384.239 526.467 382.422 526.544 382.499 524.757 380.902 524.853 380.976 522.986 379.619 523.101 379.694 521.171 378.601 521.309 378.666 519.333 377.858 519.497 377.912 517.488 377.412 517.628 377.438 516.616 377.309 516.717 377.318 515.703 377.274ZM524.15 437.375 516.189 435.992 522.071 430.454Z" fill="#4472C4" transform="matrix(1 0 0 1.00016 -435.869 -349.498)"/><path d="M0.721972-0.964045 20.8631 14.1196 19.4192 16.0477-0.721972 0.964045ZM21.343 11.4696 24.9613 18.6935 17.0112 17.2538Z" fill="#FF0000" transform="matrix(1 0 0 -1.00016 42.5124 60.7487)"/><path d="M0.15787-1.19403 19.1491 1.31692 18.8334 3.70498-0.15787 1.19403ZM18.2708-1.229 24.9613 3.30029 17.3236 5.93517Z" fill="#FF0000" transform="matrix(1 0 0 -1.00016 42.5124 60.772)"/><path d="M518.184 398.68 529.847 398.68 529.847 399.939 518.184 399.939Z" stroke="#EF7C00" stroke-width="0.700753" stroke-linejoin="round" stroke-miterlimit="10" fill="#F6C6AD" fill-rule="evenodd" transform="matrix(1 0 0 1.00016 -435.869 -349.498)"/><path d="M534.35 391.929 538.763 391.929 539.501 399.834 543.988 391.929 548.391 391.929 548.258 392.553C547.898 392.656 547.632 392.831 547.464 393.083 547.293 393.335 547.132 393.802 546.98 394.484L545.256 402.296C545.212 402.496 545.182 402.672 545.163 402.821 545.144 402.968 545.135 403.162 545.135 403.403 545.135 403.667 545.196 403.861 545.319 403.984 545.441 404.108 545.642 404.188 545.92 404.225L545.787 404.851 541.026 404.851 541.157 404.225C541.517 404.125 541.783 403.949 541.953 403.695 542.124 403.442 542.285 402.975 542.437 402.296L543.306 398.318C543.598 397.007 543.939 395.683 544.329 394.351L544.14 394.351C543.843 394.896 543.525 395.461 543.184 396.047L538.924 403.421 537.389 403.421 536.766 397.731C536.621 396.381 536.525 395.223 536.481 394.258L536.331 394.258C536.076 395.816 535.838 397.11 535.612 398.138L534.691 402.296C534.647 402.496 534.617 402.672 534.598 402.821 534.579 402.968 534.57 403.162 534.57 403.403 534.57 403.667 534.631 403.861 534.754 403.984 534.876 404.108 535.077 404.188 535.355 404.225L535.221 404.851 531.748 404.851 531.881 404.225C532.241 404.125 532.505 403.949 532.675 403.695 532.846 403.442 533.007 402.975 533.159 402.296L534.88 394.484C534.965 394.113 535.004 393.744 535.004 393.377 535.004 393.111 534.943 392.917 534.82 392.796 534.696 392.672 534.497 392.592 534.219 392.553Z" stroke="#EF7C00" stroke-width="0.700753" stroke-linejoin="round" stroke-miterlimit="10" fill="#F6C6AD" fill-rule="evenodd" transform="matrix(1 0 0 1.00016 -435.869 -349.498)"/><path d="M478.881 409.079 498.36 417.941 497.362 420.134 477.881 411.27ZM498.261 415.25 503.342 421.531 495.269 421.828Z" fill="#FF0000" transform="matrix(1 0 0 1.00016 -435.869 -349.498)"/><path d="M479.248 409.338 500.025 430.842 498.292 432.514 477.514 411.011ZM500.92 428.301 503.342 436.009 495.722 433.323Z" fill="#FF0000" transform="matrix(1 0 0 1.00016 -435.869 -349.498)"/><path d="M0.0203679-0.534914 1.20173-0.48993 2.40147-0.355721 4.7051 0.147217 6.86906 0.932248 8.88044 1.98857 9.70308 3.03314 8.86199 3.69554 8.10996 2.74062 8.28162 2.88334 6.40345 1.89699 6.46979 1.92628 4.37352 1.1658 4.44189 1.18557 2.20021 0.696158 2.25488 0.705161 1.10223 0.576219 1.14137 0.579148-0.0203679 0.534914ZM11.2649 0.619883 12.408 7.71015 6.04997 4.37046Z" transform="matrix(-0.190808 -0.981778 -0.981621 0.190838 142.772 62.9774)"/><path d="M0.0292529-0.534513 1.21904-0.469399 2.4254-0.275434 3.60933 0.0365563 4.76199 0.457638 5.87477 0.979151 6.94857 1.59819 8.87976 3.05591 9.78756 3.93732 10.9251 5.81598 10.0093 6.3705 8.90739 4.55071 8.9924 4.65753 8.15782 3.8472 8.20821 3.89039 6.32999 2.47268 6.38514 2.50917 5.3597 1.91801 5.39988 1.93897 4.32901 1.43708 4.3725 1.45517 3.26525 1.05069 3.31253 1.06552 2.17803 0.766553 2.22946 0.777438 1.07679 0.592107 1.13251 0.598094-0.0292529 0.534513ZM13.0722 3.9308 12.4083 11.082 7.08566 6.26015Z" transform="matrix(0.422606 0.906427 0.906282 -0.422673 55.2778 107.987)"/><path d="M481.534 391.298 486.381 391.298 486.239 391.922C486.045 391.948 485.884 391.992 485.758 392.055 485.632 392.118 485.529 392.205 485.449 392.315 485.37 392.427 485.311 392.562 485.274 392.728 485.237 392.891 485.216 393.043 485.213 393.181 485.209 393.321 485.204 393.718 485.199 394.375L485.16 397.935C485.155 398.558 485.122 399.565 485.066 400.952L485.19 400.952C485.403 400.467 485.865 399.518 486.571 398.103L489.988 391.298 492.062 391.298 492.071 397.498 492.081 398.341C492.081 399.224 492.057 400.095 492.015 400.952L492.137 400.952C492.433 400.336 492.968 399.266 493.737 397.743L495.148 394.989C495.426 394.452 495.631 394.015 495.762 393.674 495.895 393.333 495.963 393.048 495.963 392.821 495.963 392.632 495.94 392.48 495.895 392.368 495.851 392.254 495.769 392.158 495.65 392.083 495.528 392.009 495.365 391.955 495.157 391.922L495.3 391.298 499.322 391.298 499.179 391.922C498.971 391.959 498.787 392.037 498.626 392.149 498.467 392.263 498.313 392.415 498.168 392.604 498.023 392.793 497.881 393.008 497.741 393.251 497.603 393.494 497.416 393.835 497.182 394.27L491.758 404.286 489.486 404.286 489.467 398.189 489.467 396.58C489.467 396.169 489.472 395.741 489.476 395.293L489.355 395.293C489.147 395.76 488.937 396.194 488.729 396.598L484.868 404.286 482.595 404.286 482.406 394.214C482.394 393.613 482.347 393.16 482.268 392.849 482.191 392.541 482.083 392.319 481.953 392.184 481.819 392.046 481.633 391.959 481.392 391.922Z" stroke="#275317" stroke-width="0.700753" stroke-linejoin="round" stroke-miterlimit="10" fill="#B4E5A2" fill-rule="evenodd" transform="matrix(1 0 0 1.00016 -435.869 -349.498)"/></g></svg>